<svg viewBox="0 0 200 220" xmlns="http://www.w3.org/2000/svg" role="img" aria-label="Hone mascot">
  <g fill="none" stroke="#e8e8e8" stroke-width="4" stroke-linecap="round" stroke-linejoin="round">
    <path d="M100 12
             C 60 12, 34 42, 34 82
             C 34 100, 38 112, 30 130
             C 26 138, 24 150, 30 158
             C 40 170, 34 190, 34 190
             M100 12
             C 140 12, 166 42, 166 82
             C 166 100, 162 112, 170 130
             C 174 138, 176 150, 170 158
             C 160 170, 166 190, 166 190"/>
    <ellipse cx="70" cy="98" rx="9" ry="12" fill="#e8e8e8" stroke="none"/>
    <ellipse cx="130" cy="98" rx="9" ry="12" fill="#e8e8e8" stroke="none"/>
    <path d="M92 118 q8 6 16 0" stroke-width="3"/>
    <path d="M52 132
             C 70 150, 130 150, 148 132
             C 150 150, 146 166, 100 172
             C 54 166, 50 150, 52 132 Z" stroke-width="4"/>
    <path d="M60 136 L64 156 M70 139 L74 160 M80 141 L83 163 M90 142 L92 165 M100 143 L100 166 M110 142 L108 165 M120 141 L117 163 M130 139 L126 160 M140 136 L136 156"
          stroke-width="2.5"/>
  </g>
</svg>
